<?xml version="1.0" encoding="UTF-8"?>
<svg id="Capa_2" data-name="Capa 2" xmlns="http://www.w3.org/2000/svg" viewBox="0 0 50.21 106.71">
  <defs>
    <style>
      .cls-1, .cls-2 {
        fill: #fff;
        stroke: #1d1d1b;
        stroke-miterlimit: 10;
      }

      .cls-2 {
        stroke-linecap: round;
      }
    </style>
  </defs>
  <g id="Capa_1-2" data-name="Capa 1">
    <g>
      <rect class="cls-1" x=".5" y="101.78" width="49.21" height="4.43" rx=".76" ry=".76"/>
      <path class="cls-1" d="M38.66,90.95H11.74c-1.01-2.01-2.32-5.27-2.59-9.46-.46-7.29,2.55-12.73,3.85-14.8.77-7.45,1.54-14.9,2.31-22.35.34-3.6.82-6.35,1.1-6.34l17.76.48c.27,0,.74,2.75,1.07,6.33.66,7.29,1.31,14.59,1.97,21.88,1.79,3.31,5.6,11.52,2.98,20.41-.41,1.4-.95,2.69-1.54,3.85Z"/>
      <rect class="cls-1" x="4.9" y="90.95" width="40.41" height="10.83" rx=".76" ry=".76"/>
      <path class="cls-2" d="M38.03,25.14c.07.94,0,1.95-.27,3.03-1.25,5.27-6.12,9.48-11.52,9.94-7.85.68-14.91-6.32-14.01-14.2.4-3.52,5.69-14.98,6.99-17.18,1.19-2.01,2.39-4.28,4.21-5.8,1.92-1.6,1.62,1.7,1.8,2.79.33,1.98,1.01,3.89,2.01,5.63,1.61,2.8,3.97,5.04,6.14,7.38,2.42,2.61,4.42,5.14,4.66,8.41Z"/>
      <rect class="cls-1" x="12.88" y="34.18" width="24.44" height="4.43" rx=".76" ry=".76"/>
      <rect class="cls-1" x="7.91" y="62.26" width="34.39" height="4.43" rx=".76" ry=".76"/>
      <line class="cls-2" x1="23.01" y1="20.77" x2="15.61" y2="14.31"/>
    </g>
  </g>
</svg>