<?xml version="1.0" encoding="UTF-8"?>
<svg id="Capa_2" data-name="Capa 2" xmlns="http://www.w3.org/2000/svg" viewBox="0 0 63.38 98.81">
  <defs>
    <style>
      .cls-1 {
        fill: #1d1d1b;
        stroke: #fff;
        stroke-miterlimit: 10;
      }
    </style>
  </defs>
  <g id="Capa_1-2" data-name="Capa 1">
    <g>
      <path class="cls-1" d="M56.56,74.14v12.38c0,.56-.4,1.01-.9,1.01H9.62c-.5,0-.9-.45-.9-1.01v-12.38c0-.56.4-1.01.9-1.01h6.87l-3.13-7.91,14.94-26.95-14.26,2.86c.05.41.31,3.47-1.73,5.86-2.32,2.72-5.53,2.14-5.79,2.09L.62,39.82c7.47-8.72,8.38-14.05,7.41-17.45-.72-2.53-2.43-3.78-2.08-5.72.59-3.42,6.84-4.96,12.62-5.74-.85-8.12-.54-10.26,0-10.41.9-.25,1.81,5.07,5.91,8.2,3.03,2.33,6.17,2.2,7.76,2.34,16.36,1.56,24.59,47.75,24.33,53.65-.02.37-.07,1.42-.7,2.34-1.35,1.96-4.33,1.76-5.91,1.52l-.45,4.57h6.16c.5,0,.9.45.9,1.01Z"/>
      <rect class="cls-1" x="4.88" y="87" width="54.89" height="5.25" rx=".76" ry=".76"/>
      <rect class="cls-1" x="1.77" y="91.71" width="61.11" height="6.6" rx=".76" ry=".76"/>
    </g>
  </g>
</svg>