<?xml version="1.0" encoding="UTF-8"?>
<svg id="Capa_2" data-name="Capa 2" xmlns="http://www.w3.org/2000/svg" viewBox="0 0 62.54 139.42">
  <defs>
    <style>
      .cls-1 {
        fill: #fff;
        stroke: #000;
        stroke-miterlimit: 10;
      }
    </style>
  </defs>
  <g id="Capa_1-2" data-name="Capa 1">
    <g>
      <path class="cls-1" d="M12.51,21.99s.01-.03.02-.05c.9-2.77,3.54-4.6,6.45-4.6h12.1v-.05h12.48c2.91,0,5.56,1.83,6.45,4.6,0,.02.01.03.02.05,2.57,8.06-3.36,16.33-7.47,21.65-1.29,1.67-3.28,2.64-5.39,2.64h-11.83c-2.11,0-4.1-.97-5.4-2.64-4.1-5.32-9.99-13.56-7.43-21.6Z"/>
      <path class="cls-1" d="M53.62,119.42c-.65,2.02-1.48,3.87-2.41,5.54h-19.71v.06H11.33c-.93-1.67-1.76-3.52-2.41-5.54-4.08-12.79,9.81-26.02,12.6-30.79,1.03-10.49-5.9-19.53-4.88-30.02.5-5.16,1.23-9.1,1.66-9.11l12.74-.32v-.07l13.2.33c.43.01,1.16,3.95,1.66,9.11,1.02,10.49-5.91,19.53-4.88,30.02,2.79,4.77,16.68,18,12.6,30.79Z"/>
      <rect class="cls-1" x="13.15" y="45.39" width="36.24" height="4.43" rx=".76" ry=".76"/>
      <g>
        <rect class="cls-1" x=".5" y="134.48" width="61.54" height="4.43" rx=".76" ry=".76"/>
        <rect class="cls-1" x="6" y="123.66" width="50.53" height="10.83" rx=".76" ry=".76"/>
      </g>
      <rect class="cls-1" x="19.05" y="84.52" width="24.44" height="4.43" rx=".76" ry=".76"/>
      <path class="cls-1" d="M31.47.73c1.7,1.81,3.38,3.6,5.22,5.56l3.59-3.23,2.17,3.59,3.68-2.07c-.71,4.29-1.33,8.14-2.03,11.98-.05.3-.74.68-1.13.68-8.05.04-16.1.03-24.32.03l-2.24-12.63,3.85,2.1,2.55-3.87,2.82,4.16L31.47.73Z"/>
    </g>
  </g>
</svg>