<?xml version="1.0" encoding="UTF-8"?>
<svg id="Capa_2" data-name="Capa 2" xmlns="http://www.w3.org/2000/svg" viewBox="0 0 49.69 139.35">
  <defs>
    <style>
      .cls-1 {
        fill: #000;
        stroke: #fff;
        stroke-miterlimit: 10;
      }
    </style>
  </defs>
  <g id="Capa_1-2" data-name="Capa 1">
    <g>
      <path class="cls-1" d="M41.86,127.33H8c-1.27-2.53-2.92-6.63-3.25-11.9-.58-9.17,3.2-16.01,4.84-18.62.97-9.37,1.94-18.75,2.91-28.12.42-4.53,1.03-7.98,1.38-7.97l22.35.6c.35,0,.94,3.46,1.34,7.97.83,9.18,1.65,18.35,2.48,27.53,2.26,4.17,7.04,14.49,3.75,25.67-.52,1.77-1.19,3.38-1.94,4.84Z"/>
      <g>
        <path class="cls-1" d="M43,16.16c-1.32,4.51-2.88,8.96-4.03,13.51-.49,1.94-1.22,2.74-3.32,2.71-7.39-.12-14.78.02-22.17-.12-1.03-.02-2.66-.92-2.95-1.77-1.44-4.21-2.51-8.54-3.91-13.57,3.21,2.32,5.84,4.21,8.83,6.36,2.77-3.83,5.54-7.53,8.1-11.39.04-.05.06-.12.06-.2l2-.05c.41.63.91,1.27,1.29,1.86,2.06,3.11,4.26,6.12,6.56,9.4,3.36-2.37,6.44-4.55,9.54-6.74Z"/>
        <polygon class="cls-1" points="29.63 5.15 29.63 6.98 25.75 6.98 25.75 11.63 23.64 11.63 23.64 6.98 19.75 6.98 19.75 5.15 23.64 5.15 23.64 .5 25.75 .5 25.75 5.15 29.63 5.15"/>
      </g>
      <path class="cls-1" d="M35.32,61.52H14.29c-3.01,0-5.59-2.16-6.12-5.13l-3.38-19.01c-.68-3.81,2.25-7.31,6.12-7.31h27.79c3.87,0,6.8,3.5,6.12,7.31l-3.38,19.01c-.53,2.97-3.11,5.13-6.12,5.13Z"/>
      <rect class="cls-1" x="10.35" y="61.35" width="28.68" height="3.51" rx=".76" ry=".76"/>
      <rect class="cls-1" x="7.24" y="95.01" width="35.22" height="3.51" rx=".76" ry=".76"/>
      <g>
        <rect class="cls-1" x=".5" y="135.34" width="48.69" height="3.51" rx=".76" ry=".76"/>
        <rect class="cls-1" x="4.85" y="126.78" width="39.99" height="8.57" rx=".76" ry=".76"/>
      </g>
    </g>
  </g>
</svg>