<?xml version="1.0" encoding="UTF-8"?>
<svg id="Capa_2" data-name="Capa 2" xmlns="http://www.w3.org/2000/svg" viewBox="0 0 54.62 97.29">
  <defs>
    <style>
      .cls-1 {
        stroke-width: 2px;
      }

      .cls-1, .cls-2 {
        fill: #fff;
        stroke: #1d1d1b;
        stroke-miterlimit: 10;
      }
    </style>
  </defs>
  <g id="Capa_1-2" data-name="Capa 1">
    <g>
      <g>
        <rect class="cls-2" x=".5" y="87.18" width="53.62" height="9.61" rx="1.29" ry="1.29"/>
        <rect class="cls-2" x="9.02" y="21.43" width="36.59" height="61.88"/>
        <rect class="cls-2" x="4.55" y="17.55" width="45.52" height="3.88" rx=".39" ry=".39"/>
        <rect class="cls-2" x="4.55" y="83.3" width="45.52" height="3.88" rx=".39" ry=".39"/>
        <path class="cls-2" d="M54.12,1.09v15.88c0,.32-.26.59-.59.59H1.09c-.32,0-.59-.26-.59-.59V1.09c0-.32.26-.59.59-.59h6.27c.32,0,.59.26.59.59v6.27c0,.32.26.59.59.59h2.94c.32,0,.59-.26.59-.59V1.09c0-.32.26-.59.59-.59h6.26c.32,0,.59.26.59.59v6.27c0,.32.26.59.59.59h2.94c.32,0,.59-.26.59-.59V1.09c0-.32.26-.59.59-.59h6.26c.32,0,.59.26.59.59v6.27c0,.32.26.59.59.59h2.94c.32,0,.59-.26.59-.59V1.09c0-.32.26-.59.59-.59h6.27c.32,0,.59.26.59.59v6.27c0,.32.26.59.59.59h2.94c.32,0,.59-.26.59-.59V1.09c0-.32.26-.59.59-.59h6.26c.32,0,.59.26.59.59Z"/>
      </g>
      <line class="cls-1" x1="16.22" y1="27.66" x2="16.22" y2="75.01"/>
      <line class="cls-1" x1="27.67" y1="27.66" x2="27.67" y2="75.01"/>
      <line class="cls-1" x1="39.12" y1="27.66" x2="39.12" y2="75.01"/>
    </g>
  </g>
</svg>